<svg xmlns="http://www.w3.org/2000/svg" width="1200" height="1200" fill="none" viewBox="0 0 1200 1200">
  <rect width="1200" height="1200" fill="#0A0A0A" rx="3"/>
  
  <!-- Background stars -->
  <g opacity="0.8">
    <!-- Small stars -->
    <circle cx="100" cy="150" r="1" fill="#FFFFFF" opacity="0.6"/>
    <circle cx="250" cy="80" r="1.5" fill="#FFFFFF" opacity="0.8"/>
    <circle cx="400" cy="200" r="1" fill="#FFFFFF" opacity="0.7"/>
    <circle cx="550" cy="120" r="1.2" fill="#FFFFFF" opacity="0.9"/>
    <circle cx="700" cy="180" r="1" fill="#FFFFFF" opacity="0.6"/>
    <circle cx="850" cy="90" r="1.5" fill="#FFFFFF" opacity="0.8"/>
    <circle cx="1000" cy="160" r="1" fill="#FFFFFF" opacity="0.7"/>
    <circle cx="1150" cy="140" r="1.3" fill="#FFFFFF" opacity="0.9"/>
    
    <!-- Medium stars -->
    <circle cx="150" cy="300" r="2" fill="#4FC3F7" opacity="0.8"/>
    <circle cx="350" cy="350" r="2.5" fill="#81C784" opacity="0.7"/>
    <circle cx="600" cy="280" r="2" fill="#FFB74D" opacity="0.9"/>
    <circle cx="800" cy="320" r="2.2" fill="#F06292" opacity="0.8"/>
    <circle cx="1050" cy="290" r="2" fill="#BA68C8" opacity="0.7"/>
    
    <!-- Large stars -->
    <circle cx="200" cy="500" r="3" fill="#FFD54F" opacity="0.9"/>
    <circle cx="500" cy="480" r="3.5" fill="#4FC3F7" opacity="0.8"/>
    <circle cx="900" cy="520" r="3" fill="#81C784" opacity="0.9"/>
  </g>
  
  <!-- Nebula clouds -->
  <g opacity="0.3">
    <!-- Purple nebula -->
    <ellipse cx="300" cy="400" rx="120" ry="80" fill="url(#purpleGradient)"/>
    <!-- Blue nebula -->
    <ellipse cx="800" cy="350" rx="100" ry="60" fill="url(#blueGradient)"/>
    <!-- Pink nebula -->
    <ellipse cx="600" cy="600" rx="140" ry="90" fill="url(#pinkGradient)"/>
  </g>
  
  <!-- Planets -->
  <g>
    <!-- Gas giant -->
    <circle cx="200" cy="200" r="60" fill="url(#planet1Gradient)"/>
    <circle cx="200" cy="200" r="55" fill="url(#planet1Ring)"/>
    <circle cx="200" cy="200" r="50" fill="url(#planet1Gradient)"/>
    
    <!-- Rocky planet -->
    <circle cx="900" cy="250" r="40" fill="url(#planet2Gradient)"/>
    <circle cx="900" cy="250" r="35" fill="url(#planet2Surface)"/>
    
    <!-- Ice planet -->
    <circle cx="400" cy="700" r="45" fill="url(#planet3Gradient)"/>
    <circle cx="400" cy="700" r="40" fill="url(#planet3Surface)"/>
  </g>
  
  <!-- Floating books/resources -->
  <g transform="translate(500, 300)">
    <!-- Book 1 -->
    <rect x="0" y="0" width="80" height="100" fill="#3B82F6" rx="6" opacity="0.9"/>
    <rect x="6" y="6" width="68" height="88" fill="#60A5FA" rx="3"/>
    <rect x="12" y="12" width="56" height="6" fill="#DBEAFE" rx="2"/>
    <rect x="12" y="24" width="40" height="3" fill="#DBEAFE" rx="1"/>
    <rect x="12" y="30" width="45" height="3" fill="#DBEAFE" rx="1"/>
    
    <!-- Book 2 -->
    <rect x="20" y="-15" width="80" height="100" fill="#8B5CF6" rx="6" opacity="0.9"/>
    <rect x="26" y="-9" width="68" height="88" fill="#A78BFA" rx="3"/>
    <rect x="32" y="-3" width="56" height="6" fill="#EDE9FE" rx="2"/>
    <rect x="32" y="9" width="40" height="3" fill="#EDE9FE" rx="1"/>
    <rect x="32" y="15" width="45" height="3" fill="#EDE9FE" rx="1"/>
    
    <!-- Book 3 -->
    <rect x="40" y="-30" width="80" height="100" fill="#EC4899" rx="6" opacity="0.9"/>
    <rect x="46" y="-24" width="68" height="88" fill="#F472B6" rx="3"/>
    <rect x="52" y="-18" width="56" height="6" fill="#FCE7F3" rx="2"/>
    <rect x="52" y="-6" width="40" height="3" fill="#FCE7F3" rx="1"/>
    <rect x="52" y="0" width="45" height="3" fill="#FCE7F3" rx="1"/>
  </g>
  
  <!-- Floating documents -->
  <g transform="translate(700, 500)">
    <!-- Document 1 -->
    <rect x="0" y="0" width="70" height="90" fill="#374151" stroke="#6B7280" stroke-width="2" rx="4" opacity="0.8"/>
    <rect x="8" y="8" width="54" height="6" fill="#9CA3AF" rx="2"/>
    <rect x="8" y="20" width="40" height="3" fill="#9CA3AF" rx="1"/>
    <rect x="8" y="26" width="45" height="3" fill="#9CA3AF" rx="1"/>
    
    <!-- Document 2 -->
    <rect x="15" y="-10" width="70" height="90" fill="#1F2937" stroke="#4B5563" stroke-width="2" rx="4" opacity="0.8"/>
    <rect x="23" y="-2" width="54" height="6" fill="#6B7280" rx="2"/>
    <rect x="23" y="10" width="40" height="3" fill="#6B7280" rx="1"/>
    <rect x="23" y="16" width="45" height="3" fill="#6B7280" rx="1"/>
  </g>
  
  <!-- Floating laptop -->
  <g transform="translate(150, 600)">
    <!-- Laptop base -->
    <rect x="0" y="60" width="140" height="15" fill="#1F2937" rx="3"/>
    <!-- Laptop screen -->
    <rect x="10" y="0" width="120" height="70" fill="#111827" rx="3"/>
    <rect x="20" y="8" width="100" height="54" fill="#3B82F6" rx="2"/>
    <!-- Screen content -->
    <rect x="30" y="16" width="80" height="6" fill="#FFFFFF" rx="2"/>
    <rect x="30" y="28" width="60" height="3" fill="#FFFFFF" rx="1"/>
    <rect x="30" y="34" width="70" height="3" fill="#FFFFFF" rx="1"/>
    <rect x="30" y="40" width="50" height="3" fill="#FFFFFF" rx="1"/>
  </g>
  
  <!-- Floating icons -->
  <g>
    <!-- Magnifying glass -->
    <g transform="translate(1000, 400)">
      <circle cx="25" cy="25" r="20" fill="none" stroke="#6B7280" stroke-width="3" opacity="0.8"/>
      <line x1="35" y1="35" x2="45" y2="45" stroke="#6B7280" stroke-width="3" stroke-linecap="round" opacity="0.8"/>
    </g>
    
    <!-- Lightbulb -->
    <g transform="translate(1100, 500)">
      <path d="M30 15 C30 8, 37 2, 45 2 C53 2, 60 8, 60 15 C60 22, 56 26, 56 30 L56 45 C56 49, 52 53, 48 53 L42 53 C38 53, 34 49, 34 45 L34 30 C34 26, 30 22, 30 15 Z" fill="#FCD34D" stroke="#F59E0B" stroke-width="2" opacity="0.9"/>
      <rect x="42" y="53" width="6" height="10" fill="#6B7280" rx="1" opacity="0.8"/>
      <circle cx="45" cy="18" r="2" fill="#F59E0B" opacity="0.9"/>
    </g>
    
    <!-- Plus icon -->
    <g transform="translate(200, 400)">
      <circle cx="25" cy="25" r="20" fill="#10B981" stroke="#059669" stroke-width="2" opacity="0.9"/>
      <line x1="25" y1="15" x2="25" y2="35" stroke="#FFFFFF" stroke-width="3" stroke-linecap="round" opacity="0.9"/>
      <line x1="15" y1="25" x2="35" y2="25" stroke="#FFFFFF" stroke-width="3" stroke-linecap="round" opacity="0.9"/>
    </g>
  </g>
  
  <!-- Shooting stars -->
  <g opacity="0.7">
    <line x1="50" y1="50" x2="150" y2="150" stroke="#FFFFFF" stroke-width="2" stroke-linecap="round"/>
    <line x1="950" y1="100" x2="1050" y2="200" stroke="#4FC3F7" stroke-width="1.5" stroke-linecap="round"/>
    <line x1="800" y1="800" x2="900" y2="900" stroke="#FFB74D" stroke-width="1" stroke-linecap="round"/>
  </g>
  
  <!-- Gradients -->
  <defs>
    <linearGradient id="purpleGradient" x1="0%" y1="0%" x2="100%" y2="100%">
      <stop offset="0%" stop-color="#8B5CF6" stop-opacity="0.3"/>
      <stop offset="100%" stop-color="#A78BFA" stop-opacity="0.1"/>
    </linearGradient>
    
    <linearGradient id="blueGradient" x1="0%" y1="0%" x2="100%" y2="100%">
      <stop offset="0%" stop-color="#3B82F6" stop-opacity="0.3"/>
      <stop offset="100%" stop-color="#60A5FA" stop-opacity="0.1"/>
    </linearGradient>
    
    <linearGradient id="pinkGradient" x1="0%" y1="0%" x2="100%" y2="100%">
      <stop offset="0%" stop-color="#EC4899" stop-opacity="0.3"/>
      <stop offset="100%" stop-color="#F472B6" stop-opacity="0.1"/>
    </linearGradient>
    
    <radialGradient id="planet1Gradient" cx="30%" cy="30%">
      <stop offset="0%" stop-color="#F59E0B"/>
      <stop offset="100%" stop-color="#D97706"/>
    </radialGradient>
    
    <radialGradient id="planet1Ring" cx="50%" cy="50%">
      <stop offset="0%" stop-color="#FCD34D" stop-opacity="0.8"/>
      <stop offset="100%" stop-color="#F59E0B" stop-opacity="0.3"/>
    </radialGradient>
    
    <radialGradient id="planet2Gradient" cx="40%" cy="40%">
      <stop offset="0%" stop-color="#6B7280"/>
      <stop offset="100%" stop-color="#374151"/>
    </radialGradient>
    
    <radialGradient id="planet2Surface" cx="60%" cy="60%">
      <stop offset="0%" stop-color="#9CA3AF"/>
      <stop offset="100%" stop-color="#6B7280"/>
    </radialGradient>
    
    <radialGradient id="planet3Gradient" cx="35%" cy="35%">
      <stop offset="0%" stop-color="#E0F2FE"/>
      <stop offset="100%" stop-color="#BAE6FD"/>
    </radialGradient>
    
    <radialGradient id="planet3Surface" cx="65%" cy="65%">
      <stop offset="0%" stop-color="#FFFFFF"/>
      <stop offset="100%" stop-color="#E0F2FE"/>
    </radialGradient>
  </defs>
</svg> 