<svg xmlns="http://www.w3.org/2000/svg" width="1200" height="1200" fill="none" viewBox="0 0 1200 1200">
  <rect width="1200" height="1200" fill="#EAEAEA" rx="3"/>
  <g opacity=".5">
    <!-- Background pattern -->
    <g opacity=".3">
      <path stroke="#C9C9C9" stroke-width="2" d="M0-1h553.581" transform="scale(1 -1) rotate(45 1163.11 91.165)"/>
      <path stroke="#C9C9C9" stroke-width="2" d="M404.846 598.671h391.726"/>
      <path stroke="#C9C9C9" stroke-width="2" d="M599.5 795.742V404.017"/>
      <path stroke="#C9C9C9" stroke-width="2" d="m795.717 796.597-391.441-391.44"/>
    </g>
    
    <!-- Main book stack -->
    <g transform="translate(400, 300)">
      <!-- Book 1 -->
      <rect x="0" y="0" width="120" height="160" fill="#4F46E5" rx="8"/>
      <rect x="8" y="8" width="104" height="144" fill="#6366F1" rx="4"/>
      <rect x="16" y="16" width="88" height="8" fill="#A5B4FC" rx="2"/>
      <rect x="16" y="32" width="60" height="4" fill="#A5B4FC" rx="1"/>
      <rect x="16" y="40" width="70" height="4" fill="#A5B4FC" rx="1"/>
      <rect x="16" y="48" width="50" height="4" fill="#A5B4FC" rx="1"/>
      
      <!-- Book 2 -->
      <rect x="20" y="-10" width="120" height="160" fill="#059669" rx="8"/>
      <rect x="28" y="-2" width="104" height="144" fill="#10B981" rx="4"/>
      <rect x="36" y="6" width="88" height="8" fill="#6EE7B7" rx="2"/>
      <rect x="36" y="22" width="60" height="4" fill="#6EE7B7" rx="1"/>
      <rect x="36" y="30" width="70" height="4" fill="#6EE7B7" rx="1"/>
      <rect x="36" y="38" width="50" height="4" fill="#6EE7B7" rx="1"/>
      
      <!-- Book 3 -->
      <rect x="40" y="-20" width="120" height="160" fill="#DC2626" rx="8"/>
      <rect x="48" y="-12" width="104" height="144" fill="#EF4444" rx="4"/>
      <rect x="56" y="-4" width="88" height="8" fill="#FCA5A5" rx="2"/>
      <rect x="56" y="12" width="60" height="4" fill="#FCA5A5" rx="1"/>
      <rect x="56" y="20" width="70" height="4" fill="#FCA5A5" rx="1"/>
      <rect x="56" y="28" width="50" height="4" fill="#FCA5A5" rx="1"/>
    </g>
    
    <!-- Document stack -->
    <g transform="translate(600, 400)">
      <!-- Document 1 -->
      <rect x="0" y="0" width="100" height="140" fill="#F3F4F6" stroke="#D1D5DB" stroke-width="2" rx="4"/>
      <rect x="12" y="12" width="76" height="8" fill="#9CA3AF" rx="2"/>
      <rect x="12" y="28" width="60" height="4" fill="#9CA3AF" rx="1"/>
      <rect x="12" y="36" width="70" height="4" fill="#9CA3AF" rx="1"/>
      <rect x="12" y="44" width="50" height="4" fill="#9CA3AF" rx="1"/>
      <rect x="12" y="52" width="65" height="4" fill="#9CA3AF" rx="1"/>
      <rect x="12" y="60" width="45" height="4" fill="#9CA3AF" rx="1"/>
      
      <!-- Document 2 -->
      <rect x="8" y="-8" width="100" height="140" fill="#FEF3C7" stroke="#F59E0B" stroke-width="2" rx="4"/>
      <rect x="20" y="4" width="76" height="8" fill="#F59E0B" rx="2"/>
      <rect x="20" y="20" width="60" height="4" fill="#F59E0B" rx="1"/>
      <rect x="20" y="28" width="70" height="4" fill="#F59E0B" rx="1"/>
      <rect x="20" y="36" width="50" height="4" fill="#F59E0B" rx="1"/>
      <rect x="20" y="44" width="65" height="4" fill="#F59E0B" rx="1"/>
      <rect x="20" y="52" width="45" height="4" fill="#F59E0B" rx="1"/>
      
      <!-- Document 3 -->
      <rect x="16" y="-16" width="100" height="140" fill="#DBEAFE" stroke="#3B82F6" stroke-width="2" rx="4"/>
      <rect x="28" y="-4" width="76" height="8" fill="#3B82F6" rx="2"/>
      <rect x="28" y="12" width="60" height="4" fill="#3B82F6" rx="1"/>
      <rect x="28" y="20" width="70" height="4" fill="#3B82F6" rx="1"/>
      <rect x="28" y="28" width="50" height="4" fill="#3B82F6" rx="1"/>
      <rect x="28" y="36" width="65" height="4" fill="#3B82F6" rx="1"/>
      <rect x="28" y="44" width="45" height="4" fill="#3B82F6" rx="1"/>
    </g>
    
    <!-- Laptop/Computer -->
    <g transform="translate(200, 500)">
      <!-- Laptop base -->
      <rect x="0" y="80" width="200" height="20" fill="#374151" rx="4"/>
      <!-- Laptop screen -->
      <rect x="10" y="0" width="180" height="100" fill="#1F2937" rx="4"/>
      <rect x="20" y="10" width="160" height="80" fill="#3B82F6" rx="2"/>
      <!-- Screen content -->
      <rect x="30" y="20" width="140" height="8" fill="#FFFFFF" rx="2"/>
      <rect x="30" y="35" width="100" height="4" fill="#FFFFFF" rx="1"/>
      <rect x="30" y="43" width="120" height="4" fill="#FFFFFF" rx="1"/>
      <rect x="30" y="51" width="80" height="4" fill="#FFFFFF" rx="1"/>
      <rect x="30" y="59" width="110" height="4" fill="#FFFFFF" rx="1"/>
      <rect x="30" y="67" width="90" height="4" fill="#FFFFFF" rx="1"/>
    </g>
    
    <!-- Magnifying glass -->
    <g transform="translate(800, 200)">
      <circle cx="40" cy="40" r="30" fill="none" stroke="#6B7280" stroke-width="4"/>
      <line x1="55" y1="55" x2="75" y2="75" stroke="#6B7280" stroke-width="4" stroke-linecap="round"/>
    </g>
    
    <!-- Lightbulb (idea) -->
    <g transform="translate(900, 300)">
      <path d="M50 20 C50 10, 60 0, 70 0 C80 0, 90 10, 90 20 C90 30, 85 35, 85 40 L85 60 C85 65, 80 70, 75 70 L65 70 C60 70, 55 65, 55 60 L55 40 C55 35, 50 30, 50 20 Z" fill="#FCD34D" stroke="#F59E0B" stroke-width="2"/>
      <rect x="65" y="70" width="10" height="15" fill="#6B7280" rx="2"/>
      <circle cx="70" cy="25" r="3" fill="#F59E0B"/>
    </g>
    
    <!-- Plus icon for adding -->
    <g transform="translate(100, 200)">
      <circle cx="30" cy="30" r="25" fill="#10B981" stroke="#059669" stroke-width="2"/>
      <line x1="30" y1="15" x2="30" y2="45" stroke="#FFFFFF" stroke-width="3" stroke-linecap="round"/>
      <line x1="15" y1="30" x2="45" y2="30" stroke="#FFFFFF" stroke-width="3" stroke-linecap="round"/>
    </g>
    
    <!-- Search icon -->
    <g transform="translate(300, 150)">
      <circle cx="25" cy="25" r="15" fill="none" stroke="#6B7280" stroke-width="3"/>
      <line x1="35" y1="35" x2="45" y2="45" stroke="#6B7280" stroke-width="3" stroke-linecap="round"/>
    </g>
  </g>
</svg> 